RobotoSerifDisplay-HairlineWidth100.ufo
<glyph name="plus" format="2">
  <advance width="383.6"/>
  <unicode hex="002B"/>
  <outline>
    <contour>
      <point x="184.554" y="535.8" type="line"/>
      <point x="184.554" y="147.06" type="line"/>
      <point x="199.046" y="147.06" type="line"/>
      <point x="199.046" y="535.8" type="line"/>
    </contour>
    <contour>
      <point x="323.314" y="350.12" type="line"/>
      <point x="60.286" y="350.12" type="line"/>
      <point x="60.286" y="332.74" type="line"/>
      <point x="323.314" y="332.74" type="line"/>
    </contour>
  </outline>
</glyph>
<glyph name="comma" format="2">
  <advance width="129.846"/>
  <unicode hex="002C"/>
  <outline>
    <contour>
      <point x="50.722" y="-90.3" type="line"/>
      <point x="76.87" y="-67.2"/>
      <point x="96.146" y="-23.82"/>
      <point x="96.146" y="16.08" type="curve" smooth="yes"/>
      <point x="96.146" y="47.02"/>
      <point x="83.69800000000001" y="61.7"/>
      <point x="66.524" y="61.7" type="curve" smooth="yes"/>
      <point x="52.052" y="61.7"/>
      <point x="40.924" y="46.16603448275862"/>
      <point x="40.924" y="27.060000000000002" type="curve" smooth="yes"/>
      <point x="40.924" y="4.96"/>
      <point x="51.294" y="-7.3"/>
      <point x="64.104" y="-7.3" type="curve" smooth="yes"/>
      <point x="74.452" y="-7.3"/>
      <point x="84.402" y="0.8200000000000003"/>
      <point x="86.338" y="15.22" type="curve"/>
      <point x="81.676" y="7.94" type="line"/>
      <point x="79.28207372572058" y="-22.24968207973343"/>
      <point x="65.69491120346413" y="-51.12976794969419"/>
      <point x="35.328" y="-74.92" type="curve"/>
    </contour>
  </outline>
</glyph>
<glyph name="zero" format="2">
  <advance width="383.6"/>
  <unicode hex="0030"/>
  <outline>
    <contour>
      <point x="191.8" y="-10.0" type="curve" smooth="yes"/>
      <point x="285.744" y="-10.0"/>
      <point x="356.662" y="121.983688888908"/>
      <point x="356.662" y="304.14" type="curve" smooth="yes"/>
      <point x="356.662" y="487.125555555558"/>
      <point x="285.744" y="619.0"/>
      <point x="191.8" y="619.0" type="curve" smooth="yes"/>
      <point x="97.856" y="619.0"/>
      <point x="26.938" y="487.125555555558"/>
      <point x="26.938" y="304.14" type="curve" smooth="yes"/>
      <point x="26.938" y="121.983688888908"/>
      <point x="97.856" y="-10.0"/>
    </contour>
    <contour>
      <point x="191.8" y="7.96" type="curve" smooth="yes"/>
      <point x="112.856" y="7.96"/>
      <point x="64.336" y="127.44504561402"/>
      <point x="64.336" y="304.14" type="curve" smooth="yes"/>
      <point x="64.336" y="480.027080701754"/>
      <point x="112.856" y="601.04"/>
      <point x="191.8" y="601.04" type="curve" smooth="yes"/>
      <point x="270.744" y="601.04"/>
      <point x="319.264" y="480.027080701754"/>
      <point x="319.264" y="304.14" type="curve" smooth="yes"/>
      <point x="319.264" y="126.58112280701"/>
      <point x="270.744" y="7.96"/>
    </contour>
  </outline>
</glyph>
<glyph name="three" format="2">
  <advance width="383.6"/>
  <unicode hex="0033"/>
  <outline>
    <contour>
      <point x="186.89600000000002" y="-71.76" type="curve" smooth="yes"/>
      <point x="261.728" y="-71.76"/>
      <point x="309.776" y="-6.45151314159901"/>
      <point x="309.776" y="109.42" type="curve" smooth="yes"/>
      <point x="309.776" y="209.60394314516128"/>
      <point x="267.864" y="275.02"/>
      <point x="177.252" y="275.02" type="curve" smooth="yes"/>
      <point x="127.752" y="275.02" type="line"/>
      <point x="127.752" y="292.12" type="line"/>
      <point x="168.852" y="292.12" type="line" smooth="yes"/>
      <point x="240.068" y="292.12"/>
      <point x="288.82" y="342.81293706293707"/>
      <point x="288.82" y="442.28" type="curve" smooth="yes"/>
      <point x="288.82" y="552.7723814242689"/>
      <point x="245.994" y="599.76"/>
      <point x="186.994" y="599.76" type="curve" smooth="yes"/>
      <point x="128.918" y="599.76"/>
      <point x="93.45173766255756" y="564.9486528604915"/>
      <point x="74.944" y="532.8" type="curve"/>
      <point x="75.406" y="537.14"/>
      <point x="89.04" y="570.02"/>
      <point x="92.538" y="570.58" type="curve"/>
      <point x="92.538" y="475.52" type="line"/>
      <point x="53.81" y="475.52" type="line"/>
      <point x="53.81" y="546.18" type="line"/>
      <point x="74.832" y="575.16"/>
      <point x="118.54" y="618.0"/>
      <point x="189.458" y="618.0" type="curve" smooth="yes"/>
      <point x="268.526" y="618.0"/>
      <point x="325.514" y="553.28"/>
      <point x="325.514" y="454.28" type="curve" smooth="yes"/>
      <point x="325.514" y="338.52"/>
      <point x="251.176" y="280.14"/>
      <point x="171.876" y="280.14" type="curve"/>
      <point x="183.774" y="287.56" type="line"/>
      <point x="304.27" y="287.56"/>
      <point x="346.932" y="209.2694888888889"/>
      <point x="346.932" y="109.42" type="curve" smooth="yes"/>
      <point x="346.932" y="-7.86"/>
      <point x="280.388" y="-90.0"/>
      <point x="187.38" y="-90.0" type="curve" smooth="yes"/>
      <point x="99.638" y="-90.0"/>
      <point x="43.298" y="-19.7"/>
      <point x="17.438" y="74.3" type="curve"/>
      <point x="28.808" y="89.56" type="line"/>
      <point x="50.5020199484578" y="5.839962823328643"/>
      <point x="100.52369642857143" y="-71.76"/>
    </contour>
  </outline>
</glyph>
<glyph name="five" format="2">
  <advance width="383.6"/>
  <unicode hex="0035"/>
  <outline>
    <contour>
      <point x="189.49" y="-90.0" type="curve"/>
      <point x="106.74" y="-90.0"/>
      <point x="56.844" y="-26.58"/>
      <point x="33.402" y="55.14" type="curve"/>
      <point x="44.552" y="70.26" type="line"/>
      <point x="65.85" y="-11.76"/>
      <point x="113.37143842364532" y="-71.76"/>
      <point x="188.104" y="-71.76" type="curve"/>
      <point x="267.192" y="-71.76"/>
      <point x="315.69" y="20.129320924056138"/>
      <point x="315.69" y="150.44" type="curve" smooth="yes"/>
      <point x="315.69" y="275.44367087087085"/>
      <point x="265.466" y="347.76"/>
      <point x="200.068" y="347.76" type="curve" smooth="yes"/>
      <point x="145.33161047580967" y="347.76"/>
      <point x="109.34844238950427" y="306.006793080198"/>
      <point x="78.682" y="240.0" type="curve"/>
      <point x="65.872" y="240.0" type="line"/>
      <point x="65.872" y="609.0" type="line"/>
      <point x="323.346" y="609.0" type="line"/>
      <point x="316.122" y="567.42" type="line"/>
      <point x="75.976" y="567.42" type="line"/>
      <point x="80.706" y="589.86" type="line"/>
      <point x="80.706" y="263.96" type="line"/>
      <point x="79.562" y="260.6"/>
      <point x="75.504" y="258.72"/>
      <point x="74.58" y="259.98" type="curve"/>
      <point x="101.9629208600315" y="320.9882739845273"/>
      <point x="145.04524607329842" y="366.0"/>
      <point x="205.356" y="366.0" type="curve" smooth="yes"/>
      <point x="298.74" y="366.0"/>
      <point x="352.144" y="264.86"/>
      <point x="352.144" y="150.44" type="curve" smooth="yes"/>
      <point x="352.144" y="14.74"/>
      <point x="288.634" y="-90.0"/>
    </contour>
  </outline>
</glyph>
<glyph name="six" format="2">
  <advance width="383.6"/>
  <unicode hex="0036"/>
  <outline>
    <contour>
      <point x="303.104" y="722.74" type="line"/>
      <point x="160.08" y="685.44"/>
      <point x="69.086" y="506.1669"/>
      <point x="69.086" y="287.98" type="curve" smooth="yes"/>
      <point x="69.086" y="102.72178181818182"/>
      <point x="123.114" y="8.24"/>
      <point x="198.716" y="8.24" type="curve" smooth="yes"/>
      <point x="272.26" y="8.24"/>
      <point x="316.846" y="107.60685856101597"/>
      <point x="316.846" y="233.3" type="curve" smooth="yes"/>
      <point x="316.846" y="352.7490411584961"/>
      <point x="277.924" y="439.92"/>
      <point x="206.676" y="439.92" type="curve" smooth="yes"/>
      <point x="142.828" y="439.92"/>
      <point x="89.02202119245993" y="368.92655728543184"/>
      <point x="59.586" y="279.18" type="curve"/>
      <point x="59.806" y="280.72"/>
      <point x="52.647999999999996" y="289.72"/>
      <point x="52.186" y="290.56" type="curve"/>
      <point x="78.52144467310823" y="376.1660281779394"/>
      <point x="137.606" y="458.16"/>
      <point x="211.548" y="458.16" type="curve" smooth="yes"/>
      <point x="297.2" y="458.16"/>
      <point x="354.244" y="366.4252266666667"/>
      <point x="354.244" y="233.3" type="curve" smooth="yes"/>
      <point x="354.244" y="100.46"/>
      <point x="288.722" y="-10.0"/>
      <point x="198.716" y="-10.0" type="curve" smooth="yes"/>
      <point x="105.014" y="-10.0"/>
      <point x="31.93" y="100.59531803278688"/>
      <point x="31.93" y="287.98" type="curve" smooth="yes"/>
      <point x="31.93" y="504.2668584269663"/>
      <point x="141.056" y="703.72"/>
      <point x="300.762" y="740.0" type="curve"/>
    </contour>
  </outline>
</glyph>
<glyph name="C" format="2">
  <advance width="469"/>
  <unicode hex="0043"/>
  <outline>
    <contour>
      <point x="252.022" y="701.2" type="curve" smooth="yes"/>
      <point x="339.104" y="701.2"/>
      <point x="391.3046445280288" y="628.3461150342001"/>
      <point x="415.642" y="539.0" type="curve"/>
      <point x="428.618" y="539.0" type="line"/>
      <point x="428.618" y="710.0" type="line"/>
      <point x="413.124" y="710.0" type="line"/>
      <point x="405.68" y="598.94" type="line"/>
      <point x="411.872" y="593.84" type="line"/>
      <point x="385.88323043135824" y="665.8675108716669"/>
      <point x="328.692" y="720.0"/>
      <point x="252.022" y="720.0" type="curve" smooth="yes"/>
      <point x="129.062" y="720.0"/>
      <point x="28.5" y="568.86"/>
      <point x="28.5" y="355.0" type="curve" smooth="yes"/>
      <point x="28.5" y="138.0"/>
      <point x="122.19" y="-10.0"/>
      <point x="251.538" y="-10.0" type="curve" smooth="yes"/>
      <point x="351.902" y="-10.0"/>
      <point x="416.874" y="77.54"/>
      <point x="439.294" y="202.92" type="curve"/>
      <point x="425.582" y="213.34" type="line"/>
      <point x="405.6863664562305" y="99.10183721756509"/>
      <point x="348.252" y="9.940000000000001"/>
      <point x="252.022" y="9.940000000000001" type="curve" smooth="yes"/>
      <point x="142.808" y="9.940000000000001"/>
      <point x="66.58" y="146.40310638297873"/>
      <point x="66.58" y="355.0" type="curve" smooth="yes"/>
      <point x="66.58" y="564.317081570997"/>
      <point x="149.02" y="701.2"/>
    </contour>
  </outline>
</glyph>
<glyph name="h" format="2">
  <advance width="400"/>
  <unicode hex="0068"/>
  <outline>
    <contour>
      <point x="386.98" y="0.0" type="line"/>
      <point x="386.98" y="15.38" type="line"/>
      <point x="386.1" y="15.38" type="line" smooth="yes"/>
      <point x="356.302" y="15.38"/>
      <point x="334.18" y="19.8"/>
      <point x="334.18" y="40.2" type="curve" smooth="yes"/>
      <point x="334.18" y="375.6" type="line" smooth="yes"/>
      <point x="334.18" y="480.02"/>
      <point x="296.378" y="528.0"/>
      <point x="232.694" y="528.0" type="curve" smooth="yes"/>
      <point x="176.97" y="528.0"/>
      <point x="137.574" y="483.28"/>
      <point x="102.214" y="409.42" type="curve"/>
      <point x="102.214" y="381.48" type="line"/>
      <point x="137.332" y="459.48"/>
      <point x="175.662" y="508.2"/>
      <point x="226.502" y="508.2" type="curve" smooth="yes"/>
      <point x="279.904" y="508.2"/>
      <point x="299.366" y="464.74"/>
      <point x="299.366" y="366.14" type="curve" smooth="yes"/>
      <point x="299.366" y="25.38" type="line" smooth="yes"/>
      <point x="299.366" y="18.38"/>
      <point x="270.504" y="15.38"/>
      <point x="252.362" y="15.38" type="curve" smooth="yes"/>
      <point x="251.504" y="15.38" type="line"/>
      <point x="251.504" y="0.0" type="line"/>
    </contour>
    <contour>
      <point x="108.438" y="750.0" type="line"/>
      <point x="18.066" y="750.0" type="line"/>
      <point x="18.066" y="735.48" type="line"/>
      <point x="30.5" y="733.48" type="line" smooth="yes"/>
      <point x="64.398" y="728.06"/>
      <point x="73.624" y="724.36"/>
      <point x="73.624" y="706.54" type="curve" smooth="yes"/>
      <point x="73.624" y="40.2" type="line" smooth="yes"/>
      <point x="73.624" y="19.8"/>
      <point x="51.282" y="15.38"/>
      <point x="21.484" y="15.38" type="curve" smooth="yes"/>
      <point x="19.704" y="15.38" type="line"/>
      <point x="19.704" y="0.0" type="line"/>
      <point x="161.016" y="0.0" type="line"/>
      <point x="161.016" y="15.38" type="line"/>
      <point x="159.456" y="15.38" type="line" smooth="yes"/>
      <point x="131.022" y="15.38"/>
      <point x="108.438" y="19.38"/>
      <point x="108.438" y="36.56" type="curve" smooth="yes"/>
    </contour>
  </outline>
</glyph>
<glyph name="oslash" format="2">
  <advance width="389.628"/>
  <unicode hex="00F8"/>
  <anchor x="195.958" y="551.0" name="top"/>
  <outline>
    <contour>
      <point x="361.59" y="518.7" type="line"/>
      <point x="-1.88" y="-15.0" type="line"/>
      <point x="26.862000000000002" y="-15.0" type="line"/>
      <point x="390.332" y="518.7" type="line"/>
    </contour>
    <contour>
      <point x="196.452" y="-12.0" type="curve"/>
      <point x="292.342" y="-12.0"/>
      <point x="361.69" y="95.42"/>
      <point x="361.69" y="253.56" type="curve" smooth="yes"/>
      <point x="361.69" y="409.98"/>
      <point x="292.342" y="519.4"/>
      <point x="196.452" y="519.4" type="curve" smooth="yes"/>
      <point x="100.562" y="519.4"/>
      <point x="31.214" y="410.84"/>
      <point x="31.214" y="253.56" type="curve" smooth="yes"/>
      <point x="31.214" y="95.42"/>
      <point x="100.562" y="-12.0"/>
    </contour>
    <contour>
      <point x="196.452" y="18.28" type="curve"/>
      <point x="114.78" y="18.28"/>
      <point x="67.668" y="95.28"/>
      <point x="67.668" y="253.56" type="curve" smooth="yes"/>
      <point x="67.668" y="393.7"/>
      <point x="116.418" y="489.12"/>
      <point x="196.452" y="489.12" type="curve" smooth="yes"/>
      <point x="278.124" y="489.12"/>
      <point x="324.534" y="409.4"/>
      <point x="324.534" y="253.56" type="curve" smooth="yes"/>
      <point x="324.534" y="110.12"/>
      <point x="276.486" y="18.28"/>
    </contour>
  </outline>
</glyph>
<glyph name="hbar" format="2">
  <advance width="415.18"/>
  <unicode hex="0127"/>
  <outline>
    <contour>
      <point x="397.588" y="0.0" type="line"/>
      <point x="397.588" y="27.42" type="line"/>
      <point x="396.006" y="27.42" type="line" smooth="yes"/>
      <point x="363.79" y="27.42"/>
      <point x="340.81" y="34.42"/>
      <point x="340.81" y="63.42" type="curve" smooth="yes"/>
      <point x="340.81" y="358.4" type="line" smooth="yes"/>
      <point x="340.81" y="468.84"/>
      <point x="302.228" y="519.4"/>
      <point x="238.466" y="519.4" type="curve" smooth="yes"/>
      <point x="175.98" y="519.4"/>
      <point x="134.484" y="468.56"/>
      <point x="92.428" y="367.82" type="curve"/>
      <point x="99.752" y="337.8" type="line"/>
      <point x="136.65" y="429.82"/>
      <point x="176.2" y="485.84"/>
      <point x="230.714" y="485.84" type="curve" smooth="yes"/>
      <point x="285.676" y="485.84"/>
      <point x="305.996" y="444.1"/>
      <point x="305.996" y="348.94" type="curve" smooth="yes"/>
      <point x="305.996" y="37.42" type="line" smooth="yes"/>
      <point x="305.996" y="30.42"/>
      <point x="275.418" y="27.42"/>
      <point x="256.418" y="27.42" type="curve" smooth="yes"/>
      <point x="254.858" y="27.42" type="line"/>
      <point x="254.858" y="0.0" type="line"/>
    </contour>
    <contour>
      <point x="80.254" y="737.1" type="line"/>
      <point x="80.254" y="63.42" type="line" smooth="yes"/>
      <point x="80.254" y="34.42"/>
      <point x="57.054" y="27.42"/>
      <point x="24.838" y="27.42" type="curve" smooth="yes"/>
      <point x="23.76" y="27.42" type="line"/>
      <point x="23.76" y="0.0" type="line"/>
      <point x="166.008" y="0.0" type="line"/>
      <point x="166.008" y="27.42" type="line"/>
      <point x="164.37" y="27.42" type="line" smooth="yes"/>
      <point x="144.204" y="27.42"/>
      <point x="115.068" y="30.56"/>
      <point x="115.068" y="37.42" type="curve"/>
      <point x="115.068" y="737.1" type="line"/>
    </contour>
    <contour>
      <point x="263.622" y="632.14" type="line"/>
      <point x="14.238" y="632.14" type="line"/>
      <point x="14.238" y="601.86" type="line"/>
      <point x="263.622" y="601.86" type="line"/>
    </contour>
  </outline>
</glyph>
<glyph name="Uogonek" format="2">
  <advance width="533.0"/>
  <unicode hex="0172"/>
  <outline>
    <contour>
      <point x="313.462" y="-233.42" type="curve" smooth="yes"/>
      <point x="344.348" y="-233.42"/>
      <point x="365.624" y="-211.84"/>
      <point x="384.282" y="-181.4" type="curve"/>
      <point x="371.846" y="-161.54" type="line"/>
      <point x="357.048" y="-183.7"/>
      <point x="342.49" y="-202.86"/>
      <point x="320.456" y="-202.86" type="curve" smooth="yes"/>
      <point x="298.96" y="-202.86"/>
      <point x="280.644" y="-181.42"/>
      <point x="280.644" y="-139.72" type="curve" smooth="yes"/>
      <point x="280.644" y="-74.5236923076918"/>
      <point x="309.399417583676" y="-43.7459082972228"/>
      <point x="380.422" y="41.28" type="curve" smooth="yes"/>
      <point x="416.848397233154" y="84.865425465304"/>
      <point x="439.576" y="158.15348039215"/>
      <point x="439.576" y="267.78" type="curve" smooth="yes"/>
      <point x="439.576" y="631.76" type="line" smooth="yes"/>
      <point x="439.576" y="667.44"/>
      <point x="464.096" y="680.0"/>
      <point x="496.168" y="680.0" type="curve" smooth="yes"/>
      <point x="503.568" y="680.0" type="line"/>
      <point x="503.568" y="710.0" type="line"/>
      <point x="349.206" y="710.0" type="line"/>
      <point x="349.206" y="680.0" type="line"/>
      <point x="357.596" y="680.0" type="line" smooth="yes"/>
      <point x="386.008" y="680.0"/>
      <point x="415.99" y="672.14"/>
      <point x="415.99" y="657.58" type="curve" smooth="yes"/>
      <point x="415.99" y="267.78" type="line" smooth="yes"/>
      <point x="415.99" y="91.1"/>
      <point x="355.266" y="26.240000000000002"/>
      <point x="272.726" y="26.240000000000002" type="curve" smooth="yes"/>
      <point x="190.526" y="26.240000000000002"/>
      <point x="128.722" y="87.54"/>
      <point x="128.722" y="266.8" type="curve" smooth="yes"/>
      <point x="128.722" y="670.0" type="line" smooth="yes"/>
      <point x="128.722" y="677.0"/>
      <point x="161.498" y="680.0"/>
      <point x="186.414" y="680.0" type="curve" smooth="yes"/>
      <point x="192.714" y="680.0" type="line"/>
      <point x="192.714" y="710.0" type="line"/>
      <point x="28.73" y="710.0" type="line"/>
      <point x="28.73" y="680.0" type="line"/>
      <point x="35.426" y="680.0" type="line" smooth="yes"/>
      <point x="67.982" y="680.0"/>
      <point x="93.424" y="673.0"/>
      <point x="93.424" y="644.0" type="curve" smooth="yes"/>
      <point x="93.424" y="266.66" type="line" smooth="yes"/>
      <point x="93.424" y="68.42"/>
      <point x="166.146" y="-10.0"/>
      <point x="267.776" y="-10.0" type="curve" smooth="yes"/>
      <point x="296.938" y="-10.0"/>
      <point x="324.856" y="-1.92"/>
      <point x="347.804" y="13.580000000000002" type="curve"/>
      <point x="350.31" y="24.76" type="line"/>
      <point x="293.321812657816" y="-22.581688106838598"/>
      <point x="246.292" y="-71.7"/>
      <point x="246.292" y="-140.7" type="curve" smooth="yes"/>
      <point x="246.292" y="-198.56"/>
      <point x="276.034" y="-233.42"/>
    </contour>
  </outline>
</glyph>
<glyph name="Schwa" format="2">
  <advance width="467.716"/>
  <unicode hex="018F"/>
  <outline>
    <contour>
      <point x="227.348" y="720.0" type="curve" smooth="yes"/>
      <point x="137.462" y="720.0"/>
      <point x="74.24" y="654.88"/>
      <point x="34.624" y="562.16" type="curve"/>
      <point x="53.152" y="538.02" type="line"/>
      <point x="85.29" y="615.88"/>
      <point x="139.188" y="689.16"/>
      <point x="226.424" y="689.16" type="curve" smooth="yes"/>
      <point x="332.296" y="689.16"/>
      <point x="400.52" y="569.44"/>
      <point x="400.52" y="359.44" type="curve" smooth="yes"/>
      <point x="400.52" y="149.662097264462"/>
      <point x="331.844" y="19.98"/>
      <point x="232.406" y="19.98" type="curve" smooth="yes"/>
      <point x="128.162" y="19.98"/>
      <point x="72.638" y="126.14"/>
      <point x="69.758" y="346.74" type="curve"/>
      <point x="54.056" y="335.88" type="line"/>
      <point x="420.182" y="335.88" type="line"/>
      <point x="419.862" y="366.72" type="line"/>
      <point x="32.622" y="366.72" type="line"/>
      <point x="33.7" y="119.16"/>
      <point x="104.542" y="-10.86"/>
      <point x="232.406" y="-10.86" type="curve" smooth="yes"/>
      <point x="351.748" y="-10.86"/>
      <point x="436.72" y="140.14"/>
      <point x="436.72" y="357.14" type="curve" smooth="yes"/>
      <point x="436.72" y="579.14"/>
      <point x="351.276" y="720.0"/>
    </contour>
  </outline>
</glyph>
<glyph name="uhorn" format="2">
  <advance width="413.628"/>
  <unicode hex="01B0"/>
  <anchor x="190.548" y="545.0" name="top"/>
  <outline>
    <contour>
      <point x="105.49" y="509.4" type="line"/>
      <point x="13.458" y="509.4" type="line"/>
      <point x="13.458" y="481.98" type="line"/>
      <point x="16.164" y="481.7" type="line" smooth="yes"/>
      <point x="49.588" y="480.58"/>
      <point x="70.676" y="473.44"/>
      <point x="70.676" y="444.44" type="curve" smooth="yes"/>
      <point x="70.676" y="151.0" type="line" smooth="yes"/>
      <point x="70.676" y="40.56"/>
      <point x="108.06" y="-10.0"/>
      <point x="171.02" y="-10.0" type="curve" smooth="yes"/>
      <point x="233.208" y="-10.0"/>
      <point x="273.902" y="40.84"/>
      <point x="315.95799999999997" y="141.58" type="curve"/>
      <point x="308.634" y="171.6" type="line"/>
      <point x="272.438" y="79.58"/>
      <point x="232.504" y="23.56"/>
      <point x="178.772" y="23.56" type="curve" smooth="yes"/>
      <point x="124.81" y="23.56"/>
      <point x="105.49" y="65.3"/>
      <point x="105.49" y="160.46" type="curve"/>
    </contour>
    <contour>
      <point x="328.132" y="509.4" type="line"/>
      <point x="287.026" y="500.8"/>
      <point x="301.204" y="491.7"/>
      <point x="304.48" y="487.4" type="curve"/>
      <point x="397.366" y="496.56"/>
      <point x="421.778" y="565.46"/>
      <point x="425.834" y="685.7" type="curve"/>
      <point x="392.406" y="685.7" type="line"/>
      <point x="387.492" y="545.7"/>
      <point x="364.6" y="509.4"/>
      <point x="251.166" y="509.4" type="curve" smooth="yes"/>
      <point x="230.096" y="509.4" type="line"/>
      <point x="230.096" y="481.98" type="line"/>
      <point x="234.21" y="481.7" type="line"/>
      <point x="271.966" y="481.14"/>
      <point x="293.318" y="473.44"/>
      <point x="293.318" y="444.44" type="curve" smooth="yes"/>
      <point x="293.318" y="107.84" type="line"/>
      <point x="294.462" y="113.9" type="line"/>
      <point x="294.462" y="0.0" type="line"/>
      <point x="386.208" y="0.0" type="line"/>
      <point x="386.208" y="27.42" type="line"/>
      <point x="384.108" y="27.42" type="line" smooth="yes"/>
      <point x="351.65" y="27.42"/>
      <point x="328.132" y="34.42"/>
      <point x="328.132" y="63.42" type="curve" smooth="yes"/>
    </contour>
  </outline>
</glyph>
<glyph name="pi" format="2">
  <advance width="488.486"/>
  <unicode hex="03C0"/>
  <outline>
    <contour>
      <point x="187.79" y="0.0" type="line"/>
      <point x="187.79" y="488.0" type="line"/>
      <point x="163.048" y="488.0" type="line"/>
      <point x="157.38611057188317" y="221.44189982599246"/>
      <point x="150.776" y="187.44"/>
      <point x="150.776" y="0.0" type="curve"/>
    </contour>
    <contour>
      <point x="451.222" y="472.4" type="line"/>
      <point x="451.222" y="509.4" type="line"/>
      <point x="184.982" y="509.4" type="line" smooth="yes"/>
      <point x="93.02" y="509.4"/>
      <point x="52.314" y="446.52"/>
      <point x="35.59" y="338.38" type="curve"/>
      <point x="53.172" y="324.8" type="line"/>
      <point x="66.88066293680599" y="419.41485941873003"/>
      <point x="96.28515942028986" y="472.4"/>
      <point x="178.25" y="472.4" type="curve" smooth="yes"/>
    </contour>
    <contour>
      <point x="361.546" y="90.62" type="curve" smooth="yes"/>
      <point x="361.546" y="488.0" type="line"/>
      <point x="335.2" y="488.0" type="line"/>
      <point x="330.4379297008263" y="240.69891291914186"/>
      <point x="323.83" y="160.4"/>
      <point x="323.83" y="96.04" type="curve" smooth="yes"/>
      <point x="323.83" y="26.44"/>
      <point x="349.58" y="-6.5600000000000005"/>
      <point x="388.032" y="-6.5600000000000005" type="curve" smooth="yes"/>
      <point x="429.814" y="-6.5600000000000005"/>
      <point x="450.42" y="36.3"/>
      <point x="462.724" y="84.44" type="curve"/>
      <point x="447.308" y="96.58" type="line"/>
      <point x="440.0116363854969" y="74.50499626998385"/>
      <point x="426.17525" y="24.14"/>
      <point x="394.784" y="24.14" type="curve" smooth="yes"/>
      <point x="376.18733333333336" y="24.14"/>
      <point x="361.546" y="38.99379746835443"/>
    </contour>
  </outline>
</glyph>
<glyph name="emdash" format="2">
  <advance width="638.832"/>
  <unicode hex="2014"/>
  <outline>
    <contour>
      <point x="49.566" y="325.68" type="line"/>
      <point x="49.566" y="304.88" type="line"/>
      <point x="589.464" y="304.88" type="line"/>
      <point x="589.464" y="325.68" type="line"/>
    </contour>
  </outline>
</glyph>
<glyph name="naira" format="2">
  <advance width="383.6"/>
  <unicode hex="20A6"/>
  <outline>
    <contour>
      <point x="73.25" y="701.16" type="line"/>
      <point x="290.612" y="0.0" type="line"/>
      <point x="325.072" y="0.0" type="line"/>
      <point x="325.072" y="639.0" type="line" smooth="yes"/>
      <point x="325.072" y="668.0"/>
      <point x="341.972" y="680.0"/>
      <point x="365.93" y="680.0" type="curve" smooth="yes"/>
      <point x="374.11" y="680.0" type="line"/>
      <point x="374.11" y="710.0" type="line"/>
      <point x="241.014" y="710.0" type="line"/>
      <point x="241.014" y="680.0" type="line"/>
      <point x="250.514" y="680.0" type="line"/>
      <point x="271.812" y="680.0"/>
      <point x="301.806" y="672.0"/>
      <point x="301.806" y="665.0" type="curve" smooth="yes"/>
      <point x="301.806" y="28.12" type="line"/>
      <point x="309.252" y="39.78" type="line"/>
      <point x="103.534" y="710.0" type="line"/>
      <point x="9.49" y="710.0" type="line"/>
      <point x="9.49" y="680.0" type="line"/>
      <point x="16.89" y="680.0" type="line" smooth="yes"/>
      <point x="40.848" y="680.0"/>
      <point x="57.748" y="673.0"/>
      <point x="57.748" y="644.0" type="curve" smooth="yes"/>
      <point x="57.748" y="71.0" type="line" smooth="yes"/>
      <point x="57.748" y="42.0"/>
      <point x="40.848" y="30.0"/>
      <point x="16.89" y="30.0" type="curve" smooth="yes"/>
      <point x="9.49" y="30.0" type="line"/>
      <point x="9.49" y="0.0" type="line"/>
      <point x="142.586" y="0.0" type="line"/>
      <point x="142.586" y="30.0" type="line"/>
      <point x="133.086" y="30.0" type="line" smooth="yes"/>
      <point x="111.788" y="30.0"/>
      <point x="81.794" y="38.0"/>
      <point x="81.794" y="45.0" type="curve" smooth="yes"/>
      <point x="81.794" y="704.6" type="line"/>
    </contour>
    <contour>
      <point x="72.382" y="441.12" type="line"/>
      <point x="6.29" y="441.12" type="line"/>
      <point x="6.29" y="410.84" type="line"/>
      <point x="68.864" y="410.84" type="line"/>
    </contour>
    <contour>
      <point x="176.704" y="410.84" type="line"/>
      <point x="306.006" y="410.84" type="line"/>
      <point x="312.614" y="410.84" type="line"/>
      <point x="377.31" y="410.84" type="line"/>
      <point x="377.31" y="441.12" type="line"/>
      <point x="172.548" y="441.12" type="line"/>
    </contour>
    <contour>
      <point x="316.384" y="251.84" type="line"/>
      <point x="377.31" y="251.84" type="line"/>
      <point x="377.31" y="282.12" type="line"/>
      <point x="316.824" y="282.12" type="line"/>
    </contour>
    <contour>
      <point x="219.606" y="282.12" type="line"/>
      <point x="75.406" y="282.12" type="line"/>
      <point x="67.962" y="282.12" type="line"/>
      <point x="6.29" y="282.12" type="line"/>
      <point x="6.29" y="251.84" type="line"/>
      <point x="230.118" y="251.84" type="line"/>
    </contour>
  </outline>
</glyph>
<glyph name="estimated" format="2">
  <advance width="575.4"/>
  <unicode hex="212E"/>
  <outline>
    <contour>
      <point x="124.4" y="131.0" type="line"/>
      <point x="163.4" y="58.0"/>
      <point x="221.3" y="25.0"/>
      <point x="287.7" y="25.0" type="curve" smooth="yes"/>
      <point x="390.0" y="25.0"/>
      <point x="465.8" y="106.0"/>
      <point x="503.7" y="236.0" type="curve"/>
      <point x="530.1" y="236.0" type="line"/>
      <point x="495.3" y="98.0"/>
      <point x="407.8" y="-10.0"/>
      <point x="287.7" y="-10.0" type="curve" smooth="yes"/>
      <point x="144.4" y="-10.0"/>
      <point x="33.8" y="150.0"/>
      <point x="33.8" y="355.0" type="curve" smooth="yes"/>
      <point x="33.8" y="560.0"/>
      <point x="144.4" y="720.0"/>
      <point x="287.7" y="720.0" type="curve" smooth="yes"/>
      <point x="431.0" y="720.0"/>
      <point x="541.6" y="560.0"/>
      <point x="541.6" y="355.0" type="curve"/>
      <point x="94.9" y="355.0" type="line"/>
      <point x="94.9" y="390.0" type="line"/>
      <point x="451.0" y="390.0" type="line"/>
      <point x="451.0" y="581.0" type="line"/>
      <point x="412.0" y="650.0"/>
      <point x="354.1" y="685.0"/>
      <point x="287.7" y="685.0" type="curve" smooth="yes"/>
      <point x="221.3" y="685.0"/>
      <point x="162.3" y="648.0"/>
      <point x="124.4" y="580.0" type="curve"/>
    </contour>
  </outline>
</glyph>
<glyph name="at.uc" format="2">
  <advance width="594.424"/>
  <outline>
    <contour>
      <point x="310.33" y="-43.32" type="curve" smooth="yes"/>
      <point x="164.456" y="-43.32"/>
      <point x="61.916" y="90.98"/>
      <point x="61.916" y="304.28" type="curve" smooth="yes"/>
      <point x="61.916" y="532.86"/>
      <point x="174.814" y="705.58"/>
      <point x="327.76800000000003" y="705.58" type="curve" smooth="yes"/>
      <point x="461.424" y="705.58"/>
      <point x="537.422" y="577.14"/>
      <point x="537.422" y="412.7" type="curve" smooth="yes"/>
      <point x="537.422" y="236.26"/>
      <point x="487.283000000036" y="147.1"/>
      <point x="435.96" y="147.1" type="curve" smooth="yes"/>
      <point x="399.781436619726" y="147.1"/>
      <point x="383.3732432991" y="179.40876127064"/>
      <point x="391.574" y="249.7" type="curve" smooth="yes"/>
      <point x="425.572" y="538.7" type="line"/>
      <point x="404.668" y="538.7" type="line"/>
      <point x="384.766" y="473.48" type="line"/>
      <point x="382.326" y="467.48" type="line"/>
      <point x="351.924" y="209.7" type="line"/>
      <point x="354.486" y="206.4"/>
      <point x="355.19" y="210.98"/>
      <point x="355.948" y="213.7" type="curve"/>
      <point x="359.069968725198" y="161.54045689306"/>
      <point x="385.410107142846" y="123.98"/>
      <point x="432.012" y="123.98" type="curve" smooth="yes"/>
      <point x="498.926285714256" y="123.98"/>
      <point x="562.142" y="229.7"/>
      <point x="562.142" y="412.7" type="curve" smooth="yes"/>
      <point x="562.142" y="596.42"/>
      <point x="471.596" y="733.0"/>
      <point x="327.76800000000003" y="733.0" type="curve" smooth="yes"/>
      <point x="162.762" y="733.0"/>
      <point x="36.998" y="551.28"/>
      <point x="36.998" y="304.28" type="curve" smooth="yes"/>
      <point x="36.998" y="71.7"/>
      <point x="152.404" y="-71.6"/>
      <point x="310.33" y="-71.6" type="curve" smooth="yes"/>
      <point x="383.908" y="-71.6"/>
      <point x="445.724" y="-37.86"/>
      <point x="482.766" y="-5.5600000000000005" type="curve"/>
      <point x="476.004" y="21.0" type="line"/>
      <point x="437.862" y="-11.16"/>
      <point x="383.052" y="-43.32"/>
    </contour>
    <contour>
      <point x="275.462" y="119.7" type="curve" smooth="yes"/>
      <point x="320.29" y="119.7"/>
      <point x="346.438" y="167.52"/>
      <point x="380.678" y="239.08" type="curve"/>
      <point x="374.08" y="268.44" type="line"/>
      <point x="341.632" y="195.4"/>
      <point x="315.782" y="147.12"/>
      <point x="276.87" y="147.12" type="curve" smooth="yes"/>
      <point x="235.76" y="147.12"/>
      <point x="213.804" y="193.28"/>
      <point x="213.804" y="289.88" type="curve" smooth="yes"/>
      <point x="213.804" y="398.86"/>
      <point x="257.158" y="517.28"/>
      <point x="320.6" y="517.28" type="curve" smooth="yes"/>
      <point x="356.938" y="517.28"/>
      <point x="378.818" y="490.56"/>
      <point x="392.618" y="407.42" type="curve"/>
      <point x="389.604" y="401.54"/>
      <point x="397.576" y="443.96"/>
      <point x="401.998" y="449.98" type="curve"/>
      <point x="388.802" y="515.7"/>
      <point x="361.7" y="544.7"/>
      <point x="321.314" y="544.7" type="curve" smooth="yes"/>
      <point x="236.252" y="544.7"/>
      <point x="178.814" y="421.74"/>
      <point x="178.814" y="291.42" type="curve" smooth="yes"/>
      <point x="178.814" y="180.58"/>
      <point x="219.42000000000002" y="119.7"/>
    </contour>
  </outline>
</glyph>
<glyph name="blackdownpointingtriangle" format="2">
  <advance width="571.2"/>
  <outline>
    <contour>
      <point x="13.7" y="715.0" type="line"/>
      <point x="285.6" y="0.0" type="line"/>
      <point x="557.5" y="715.0" type="line"/>
    </contour>
  </outline>
</glyph>
<glyph name="bracketleft.uc" format="2">
  <advance width="192.77"/>
  <outline>
    <contour>
      <point x="42.706" y="752.8" type="line"/>
      <point x="42.706" y="-43.5" type="line"/>
      <point x="75.936" y="-43.5" type="line"/>
      <point x="75.936" y="752.8" type="line"/>
    </contour>
    <contour>
      <point x="176.574" y="752.8" type="line"/>
      <point x="64.214" y="752.8" type="line"/>
      <point x="64.214" y="722.8" type="line"/>
      <point x="176.574" y="722.8" type="line"/>
    </contour>
    <contour>
      <point x="176.574" y="-13.5" type="line"/>
      <point x="64.214" y="-13.5" type="line"/>
      <point x="64.214" y="-43.5" type="line"/>
      <point x="176.574" y="-43.5" type="line"/>
    </contour>
  </outline>
</glyph>
<glyph name="dollar.alt" format="2">
  <advance width="383.6"/>
  <outline>
    <contour>
      <point x="203.014" y="39.4" type="curve" smooth="yes"/>
      <point x="138.25828" y="39.4"/>
      <point x="82.888745885904" y="68.865365194723"/>
      <point x="55.812" y="124.1" type="curve"/>
      <point x="47.334" y="110.44"/>
      <point x="59.914" y="88.62"/>
      <point x="72.604" y="83.18" type="curve"/>
      <point x="72.604" y="181.8" type="line"/>
      <point x="33.634" y="181.8" type="line"/>
      <point x="33.634" y="94.28" type="line"/>
      <point x="63.74" y="50.72"/>
      <point x="125.498" y="8.56"/>
      <point x="203.498" y="8.56" type="curve" smooth="yes"/>
      <point x="288.414" y="8.56"/>
      <point x="357.3" y="72.84"/>
      <point x="357.3" y="196.54" type="curve" smooth="yes"/>
      <point x="357.3" y="321.24"/>
      <point x="282.945241384324" y="357.946944394506"/>
      <point x="219.13400000000001" y="382.64" type="curve" smooth="yes"/>
      <point x="152.328592205956" y="408.779710508014"/>
      <point x="87.852" y="431.64"/>
      <point x="87.852" y="535.24" type="curve" smooth="yes"/>
      <point x="87.852" y="618.72"/>
      <point x="132.089631578952" y="667.16"/>
      <point x="203.092" y="667.16" type="curve" smooth="yes"/>
      <point x="263.981435897428" y="667.16"/>
      <point x="301.60072505396" y="638.435545403686"/>
      <point x="318.858" y="606.18" type="curve"/>
      <point x="330.196" y="616.28"/>
      <point x="316.824" y="636.7"/>
      <point x="300.672" y="640.68" type="curve"/>
      <point x="300.672" y="550.76" type="line"/>
      <point x="340.718" y="550.76" type="line"/>
      <point x="340.718" y="636.14" type="line"/>
      <point x="324.282" y="659.02"/>
      <point x="274.776037914686" y="698.0"/>
      <point x="202.85" y="698.0" type="curve" smooth="yes"/>
      <point x="114.896484304928" y="698.0"/>
      <point x="53.81" y="631.58"/>
      <point x="53.81" y="529.58" type="curve" smooth="yes"/>
      <point x="53.81" y="407.3"/>
      <point x="125.039252374038" y="372.32648917031"/>
      <point x="186.972" y="347.34" type="curve" smooth="yes"/>
      <point x="254.39753429902" y="320.060808520076"/>
      <point x="323.916" y="301.5"/>
      <point x="323.916" y="186.88" type="curve" smooth="yes"/>
      <point x="323.916" y="83.86"/>
      <point x="272.538765432108" y="39.4"/>
    </contour>
    <contour>
      <point x="186.994" y="787.42" type="line"/>
      <point x="186.994" y="684.28" type="line"/>
      <point x="211.492" y="683.86" type="line"/>
      <point x="211.492" y="787.42" type="line"/>
    </contour>
    <contour>
      <point x="186.994" y="19.12" type="line"/>
      <point x="186.994" y="-120.0" type="line"/>
      <point x="211.492" y="-120.0" type="line"/>
      <point x="211.492" y="18.56" type="line"/>
    </contour>
  </outline>
</glyph>
<glyph name="lira.alt" format="2">
  <advance width="383.6"/>
  <outline>
    <contour>
      <point x="351.924" y="0.0" type="line"/>
      <point x="351.924" y="176.82" type="line"/>
      <point x="333.0" y="176.82" type="line"/>
      <point x="325.292" y="81.12" type="line" smooth="yes"/>
      <point x="322.26800000000003" y="43.86"/>
      <point x="298.452" y="35.88"/>
      <point x="239.452" y="35.88" type="curve" smooth="yes"/>
      <point x="55.956" y="35.88" type="line"/>
      <point x="62.276" y="23.8" type="line"/>
      <point x="122.596" y="68.54"/>
      <point x="157.848" y="139.92"/>
      <point x="157.848" y="225.76" type="curve" smooth="yes"/>
      <point x="157.848" y="335.48"/>
      <point x="102.884" y="411.28"/>
      <point x="102.884" y="528.14" type="curve" smooth="yes"/>
      <point x="102.884" y="631.72"/>
      <point x="148.954" y="688.28"/>
      <point x="214.672" y="688.28" type="curve" smooth="yes"/>
      <point x="266.908" y="688.28"/>
      <point x="299.838" y="658.12"/>
      <point x="317.838" y="632.28" type="curve"/>
      <point x="317.816" y="643.96"/>
      <point x="309.438" y="660.22"/>
      <point x="299.486" y="673.4" type="curve"/>
      <point x="299.486" y="575.3" type="line"/>
      <point x="338.412" y="575.3" type="line"/>
      <point x="338.412" y="661.42" type="line"/>
      <point x="319.994" y="683.98"/>
      <point x="279.29" y="718.28"/>
      <point x="213.726" y="718.28" type="curve" smooth="yes"/>
      <point x="126.752" y="718.28"/>
      <point x="65.728" y="642.58"/>
      <point x="65.728" y="527.3" type="curve" smooth="yes"/>
      <point x="65.728" y="402.98"/>
      <point x="129.292" y="317.04"/>
      <point x="129.292" y="222.96" type="curve" smooth="yes"/>
      <point x="129.292" y="124.82"/>
      <point x="86.354" y="77.7"/>
      <point x="30.928" y="35.42" type="curve"/>
      <point x="30.928" y="0.0" type="line"/>
    </contour>
    <contour>
      <point x="29.136" y="430.1" type="line"/>
      <point x="29.136" y="399.82" type="line"/>
      <point x="273.384" y="399.82" type="line"/>
      <point x="273.384" y="430.1" type="line"/>
    </contour>
    <contour>
      <point x="29.136" y="274.68" type="line"/>
      <point x="29.136" y="244.4" type="line"/>
      <point x="273.384" y="244.4" type="line"/>
      <point x="273.384" y="274.68" type="line"/>
    </contour>
  </outline>
</glyph>
<glyph name="lira.altprop" format="2">
  <advance width="406.624"/>
  <outline>
    <contour>
      <point x="25.686" y="430.1" type="line"/>
      <point x="25.686" y="399.82" type="line"/>
      <point x="283.864" y="399.82" type="line"/>
      <point x="283.864" y="430.1" type="line"/>
    </contour>
    <contour>
      <point x="25.686" y="274.68" type="line"/>
      <point x="25.686" y="244.4" type="line"/>
      <point x="283.864" y="244.4" type="line"/>
      <point x="283.864" y="274.68" type="line"/>
    </contour>
    <contour>
      <point x="31.534" y="0.0" type="line"/>
      <point x="366.932" y="0.0" type="line"/>
      <point x="366.932" y="178.64" type="line"/>
      <point x="347.306" y="178.64" type="line"/>
      <point x="339.4" y="81.12" type="line" smooth="yes"/>
      <point x="336.596" y="43.86"/>
      <point x="312.758" y="35.88"/>
      <point x="253.758" y="35.88" type="curve"/>
      <point x="56.562" y="35.88" type="line"/>
      <point x="62.882" y="23.8" type="line"/>
      <point x="123.202" y="68.54"/>
      <point x="159.156" y="139.92"/>
      <point x="159.156" y="225.76" type="curve" smooth="yes"/>
      <point x="159.156" y="335.48"/>
      <point x="103.49" y="411.28"/>
      <point x="103.49" y="528.14" type="curve" smooth="yes"/>
      <point x="103.49" y="631.72"/>
      <point x="152.462" y="688.28"/>
      <point x="222.578" y="688.28" type="curve" smooth="yes"/>
      <point x="274.816" y="688.28"/>
      <point x="308.932" y="657.98"/>
      <point x="327.152" y="632.0" type="curve"/>
      <point x="326.932" y="643.54"/>
      <point x="318.752" y="659.66"/>
      <point x="308.8" y="672.84" type="curve"/>
      <point x="308.8" y="574.74" type="line"/>
      <point x="347.528" y="574.74" type="line"/>
      <point x="347.528" y="660.86" type="line"/>
      <point x="329.06600000000003" y="683.7"/>
      <point x="287.9" y="718.28"/>
      <point x="221.434" y="718.28" type="curve" smooth="yes"/>
      <point x="130.458" y="718.28"/>
      <point x="66.334" y="642.58"/>
      <point x="66.334" y="527.3" type="curve" smooth="yes"/>
      <point x="66.334" y="402.98"/>
      <point x="130.6" y="317.04"/>
      <point x="130.6" y="222.96" type="curve" smooth="yes"/>
      <point x="130.6" y="124.82"/>
      <point x="86.96" y="77.7"/>
      <point x="31.534" y="35.42" type="curve"/>
    </contour>
  </outline>
</glyph>
<glyph name="liraTurkish" format="2">
  <advance width="384.36"/>
  <outline>
    <contour>
      <point x="26.256" y="380.64" type="line"/>
      <point x="26.256" y="350.36" type="line"/>
      <point x="295.142" y="527.38" type="line"/>
      <point x="295.142" y="557.66" type="line"/>
    </contour>
    <contour>
      <point x="26.256" y="215.64" type="line"/>
      <point x="26.256" y="185.36" type="line"/>
      <point x="295.142" y="362.38" type="line"/>
      <point x="295.142" y="392.66" type="line"/>
    </contour>
    <contour>
      <point x="185.258" y="30.42" type="curve" smooth="yes"/>
      <point x="126.91" y="30.42" type="line"/>
      <point x="126.91" y="644.0" type="line" smooth="yes"/>
      <point x="126.91" y="673.0"/>
      <point x="152.43" y="680.0"/>
      <point x="186.624" y="680.0" type="curve" smooth="yes"/>
      <point x="193.32" y="680.0" type="line"/>
      <point x="193.32" y="710.0" type="line"/>
      <point x="27.62" y="710.0" type="line"/>
      <point x="27.62" y="680.0" type="line"/>
      <point x="34.316" y="680.0" type="line" smooth="yes"/>
      <point x="66.872" y="680.0"/>
      <point x="91.612" y="673.0"/>
      <point x="91.612" y="644.0" type="curve" smooth="yes"/>
      <point x="91.612" y="66.0" type="line" smooth="yes"/>
      <point x="91.612" y="37.0"/>
      <point x="66.894" y="30.0"/>
      <point x="34.316" y="30.0" type="curve" smooth="yes"/>
      <point x="27.62" y="30.0" type="line"/>
      <point x="27.62" y="0.0" type="line"/>
      <point x="181.31" y="0.0" type="line" smooth="yes"/>
      <point x="304.544" y="0.0"/>
      <point x="368.448" y="101.16"/>
      <point x="374.748" y="269.98" type="curve"/>
      <point x="341.628" y="283.52" type="line"/>
      <point x="337.89" y="120.84"/>
      <point x="289.93" y="30.42"/>
    </contour>
  </outline>
</glyph>
<glyph name="minus.sub" format="2">
  <advance width="274.0"/>
  <outline>
    <contour>
      <point x="240.2" y="94.58" type="line"/>
      <point x="33.8" y="94.58" type="line"/>
      <point x="33.8" y="65.42" type="line"/>
      <point x="240.2" y="65.42" type="line"/>
    </contour>
  </outline>
</glyph>
<glyph name="peso.proportional" format="2">
  <advance width="422.482"/>
  <outline>
    <contour>
      <point x="31.062" y="0.0" type="line"/>
      <point x="201.732" y="0.0" type="line"/>
      <point x="201.732" y="30.0" type="line"/>
      <point x="185.118" y="30.0" type="line" smooth="yes"/>
      <point x="161.236" y="30.0"/>
      <point x="131.252" y="33.0"/>
      <point x="131.252" y="42.24" type="curve" smooth="yes"/>
      <point x="131.252" y="273.88" type="line"/>
      <point x="196.088" y="273.88" type="line" smooth="yes"/>
      <point x="309.58" y="273.88"/>
      <point x="369.494" y="363.46"/>
      <point x="369.494" y="495.44" type="curve" smooth="yes"/>
      <point x="369.494" y="627.56"/>
      <point x="312.0" y="710.0"/>
      <point x="199.486" y="710.0" type="curve" smooth="yes"/>
      <point x="31.062" y="710.0" type="line"/>
      <point x="31.062" y="680.0" type="line"/>
      <point x="37.758" y="680.0" type="line" smooth="yes"/>
      <point x="70.314" y="680.0"/>
      <point x="95.756" y="673.0"/>
      <point x="95.756" y="644.0" type="curve" smooth="yes"/>
      <point x="95.756" y="66.0" type="line" smooth="yes"/>
      <point x="95.756" y="37.0"/>
      <point x="70.534" y="30.0"/>
      <point x="37.758" y="30.0" type="curve" smooth="yes"/>
      <point x="31.062" y="30.0" type="line"/>
    </contour>
    <contour>
      <point x="199.046" y="679.3" type="line" smooth="yes"/>
      <point x="290.6" y="679.3"/>
      <point x="331.876" y="612.86"/>
      <point x="331.876" y="494.44" type="curve" smooth="yes"/>
      <point x="331.876" y="378.88"/>
      <point x="290.678" y="304.44"/>
      <point x="195.846" y="304.44" type="curve" smooth="yes"/>
      <point x="131.252" y="304.44" type="line"/>
      <point x="131.252" y="679.3" type="line"/>
    </contour>
    <contour>
      <point x="31.062" y="507.9" type="line"/>
      <point x="31.062" y="477.62" type="line"/>
      <point x="112.306" y="477.62" type="line"/>
      <point x="117.76" y="477.62" type="line"/>
      <point x="347.028" y="477.62" type="line"/>
      <point x="353.714" y="477.62" type="line"/>
      <point x="423.37" y="477.62" type="line"/>
      <point x="423.37" y="507.9" type="line"/>
      <point x="355.21" y="507.9" type="line"/>
      <point x="347.05" y="507.9" type="line"/>
      <point x="120.234" y="507.9" type="line"/>
      <point x="113.086" y="507.9" type="line"/>
    </contour>
  </outline>
</glyph>
<glyph name="sterling.alt" format="2">
  <advance width="383.6"/>
  <outline>
    <contour>
      <point x="21.726" y="352.98" type="line"/>
      <point x="21.726" y="322.7" type="line"/>
      <point x="272.604" y="322.7" type="line"/>
      <point x="272.604" y="352.98" type="line"/>
    </contour>
    <contour>
      <point x="26.872" y="0.0" type="line"/>
      <point x="348.57" y="0.0" type="line"/>
      <point x="348.57" y="178.64" type="line"/>
      <point x="328.944" y="178.64" type="line"/>
      <point x="321.938" y="81.12" type="line" smooth="yes"/>
      <point x="318.936" y="43.86"/>
      <point x="294.396" y="35.88"/>
      <point x="235.39600000000002" y="35.88" type="curve"/>
      <point x="52.602000000000004" y="35.88" type="line"/>
      <point x="56.582" y="28.1" type="line"/>
      <point x="118.54" y="68.54"/>
      <point x="154.494" y="139.92"/>
      <point x="154.494" y="225.76" type="curve" smooth="yes"/>
      <point x="154.494" y="335.48"/>
      <point x="98.828" y="411.28"/>
      <point x="98.828" y="528.14" type="curve" smooth="yes"/>
      <point x="98.828" y="631.72361006289"/>
      <point x="145.6" y="688.28"/>
      <point x="211.318" y="688.28" type="curve" smooth="yes"/>
      <point x="260.434" y="688.28"/>
      <point x="289.152" y="658.98"/>
      <point x="307.932" y="632.28" type="curve"/>
      <point x="307.91" y="643.96"/>
      <point x="300.312" y="660.22"/>
      <point x="290.36" y="673.4" type="curve"/>
      <point x="290.36" y="571.86" type="line"/>
      <point x="329.286" y="571.86" type="line"/>
      <point x="329.286" y="661.42" type="line"/>
      <point x="310.088" y="684.84"/>
      <point x="271.88" y="718.28"/>
      <point x="210.372" y="718.28" type="curve" smooth="yes"/>
      <point x="123.398" y="718.28"/>
      <point x="61.672" y="642.58265641026"/>
      <point x="61.672" y="527.3" type="curve" smooth="yes"/>
      <point x="61.672" y="402.98"/>
      <point x="125.938" y="317.04"/>
      <point x="125.938" y="222.96" type="curve" smooth="yes"/>
      <point x="125.938" y="124.82"/>
      <point x="83.0" y="77.7"/>
      <point x="26.872" y="35.42" type="curve"/>
    </contour>
  </outline>
</glyph>
<glyph name="whitedownpointingtriangle" format="2">
  <advance width="441.6"/>
  <outline>
    <contour>
      <point x="404.6" y="464.0" type="line"/>
      <point x="37.9" y="464.0" type="line"/>
      <point x="220.3" y="91.0" type="line"/>
    </contour>
    <contour>
      <point x="355.2" y="426.0" type="line"/>
      <point x="353.0" y="431.0" type="line"/>
      <point x="218.2" y="155.0" type="line"/>
      <point x="223.4" y="155.0" type="line"/>
      <point x="88.5" y="431.0" type="line"/>
      <point x="85.4" y="426.0" type="line"/>
    </contour>
  </outline>
</glyph>
<glyph name="won.proportional" format="2">
  <advance width="634.36"/>
  <outline>
    <contour>
      <point x="15.306000000000001" y="710.0" type="line"/>
      <point x="15.306000000000001" y="680.0" type="line"/>
      <point x="18.506" y="680.0" type="line" smooth="yes"/>
      <point x="42.64" y="680.0"/>
      <point x="59.22" y="676.86"/>
      <point x="64.3" y="643.56" type="curve" smooth="yes"/>
      <point x="167.358" y="0.0" type="line"/>
      <point x="204.216" y="0.0" type="line"/>
      <point x="322.7" y="675.76" type="line"/>
      <point x="313.51800000000003" y="678.34" type="line"/>
      <point x="433.662" y="0.0" type="line"/>
      <point x="472.86" y="0.0" type="line"/>
      <point x="567.024" y="632.8" type="line" smooth="yes"/>
      <point x="572.928" y="669.18"/>
      <point x="591.852" y="680.0"/>
      <point x="615.612" y="680.0" type="curve" smooth="yes"/>
      <point x="619.252" y="680.0" type="line"/>
      <point x="619.252" y="710.0" type="line"/>
      <point x="480.778" y="710.0" type="line"/>
      <point x="480.778" y="680.0" type="line"/>
      <point x="493.852" y="680.0" type="line" smooth="yes"/>
      <point x="523.166" y="680.0"/>
      <point x="549.904" y="672.16"/>
      <point x="549.904" y="661.02" type="curve"/>
      <point x="455.18" y="20.32" type="line"/>
      <point x="461.866" y="18.6" type="line"/>
      <point x="338.01800000000003" y="710.0" type="line"/>
      <point x="307.33" y="710.0" type="line"/>
      <point x="187.26" y="23.060000000000002" type="line"/>
      <point x="194.244" y="23.060000000000002" type="line"/>
      <point x="93.49600000000001" y="670.0" type="line"/>
      <point x="93.49600000000001" y="677.0"/>
      <point x="125.492" y="680.0"/>
      <point x="152.034" y="680.0" type="curve" smooth="yes"/>
      <point x="164.118" y="680.0" type="line"/>
      <point x="164.118" y="710.0" type="line"/>
    </contour>
    <contour>
      <point x="15.306000000000001" y="439.26" type="line"/>
      <point x="15.306000000000001" y="408.98" type="line"/>
      <point x="115.078" y="408.98" type="line"/>
      <point x="120.762" y="408.98" type="line"/>
      <point x="265.184" y="408.98" type="line"/>
      <point x="272.242" y="439.26" type="line"/>
    </contour>
    <contour>
      <point x="378.886" y="408.98" type="line"/>
      <point x="519.304" y="408.98" type="line"/>
      <point x="529.2" y="408.98" type="line"/>
      <point x="619.252" y="408.98" type="line"/>
      <point x="619.252" y="439.26" type="line"/>
      <point x="370.782" y="439.26" type="line"/>
    </contour>
    <contour>
      <point x="234.804" y="252.16" type="line"/>
      <point x="405.362" y="252.16" type="line"/>
      <point x="398.962" y="282.44" type="line"/>
      <point x="245.326" y="282.44" type="line"/>
    </contour>
    <contour>
      <point x="504.372" y="252.16" type="line"/>
      <point x="619.252" y="252.16" type="line"/>
      <point x="619.252" y="282.44" type="line"/>
      <point x="506.022" y="282.44" type="line"/>
    </contour>
    <contour>
      <point x="134.746" y="282.44" type="line"/>
      <point x="15.306000000000001" y="282.44" type="line"/>
      <point x="15.306000000000001" y="252.16" type="line"/>
      <point x="140.112" y="252.16" type="line"/>
    </contour>
  </outline>
</glyph>
<glyph name="zero.old" format="2">
  <advance width="383.6"/>
  <outline>
    <contour>
      <point x="191.8" y="-11.14" type="curve" smooth="yes"/>
      <point x="289.184" y="-11.14"/>
      <point x="357.124" y="105.56"/>
      <point x="357.124" y="273.86" type="curve" smooth="yes"/>
      <point x="357.124" y="441.3"/>
      <point x="289.184" y="558.0"/>
      <point x="191.8" y="558.0" type="curve" smooth="yes"/>
      <point x="94.438" y="558.0"/>
      <point x="26.476" y="441.3"/>
      <point x="26.476" y="273.86" type="curve" smooth="yes"/>
      <point x="26.476" y="105.56"/>
      <point x="94.438" y="-11.14"/>
    </contour>
    <contour>
      <point x="191.8" y="18.86" type="curve" smooth="yes"/>
      <point x="110.594132450332" y="18.86"/>
      <point x="63.874" y="118.28"/>
      <point x="63.874" y="273.86" type="curve" smooth="yes"/>
      <point x="63.874" y="427.72"/>
      <point x="110.594132450332" y="528.0"/>
      <point x="191.8" y="528.0" type="curve" smooth="yes"/>
      <point x="273.005867549668" y="528.0"/>
      <point x="319.726" y="427.72"/>
      <point x="319.726" y="273.86" type="curve" smooth="yes"/>
      <point x="319.726" y="117.42"/>
      <point x="273.005867549668" y="18.86"/>
    </contour>
  </outline>
</glyph>
